<?xml version="1.0" encoding="utf-8"?>
<!-- Generator: Adobe Illustrator 19.2.0, SVG Export Plug-In . SVG Version: 6.00 Build 0)  -->
<svg version="1.1" id="Layer_1" xmlns="http://www.w3.org/2000/svg" xmlns:xlink="http://www.w3.org/1999/xlink" x="0px" y="0px"
	 viewBox="0 0 1000 1000" style="enable-background:new 0 0 1000 1000;" xml:space="preserve">
<g>
	<g id="XMLID_362_">
		<path id="XMLID_363_" d="M422.8,833.1V541.2l188.5-78.4V205.9h171.8c170.1,0,196.8,91.7,196.8,146.8v10c0,40-6.7,80.1-48.4,105.1
			l16.7,5l-190.2,81.7c38.4,23.4,56.7,61.7,56.7,115.1V688c0,55-26.7,146.8-206.8,146.8H422.8V833.1z M604.6,728.1
			c51.7,0,63.4-18.3,63.4-46.7V653c0-31.7-11.7-50-68.4-50h-26.7v125.1H604.6z M773.1,422.8c46.7,0,55-18.3,55-51.7v-16.7
			c0-30-8.3-46.7-50-46.7h-16.7v115.1H773.1z"/>
	</g>
	<g id="XMLID_356_">
		<path id="XMLID_357_" d="M215.2,809.1C93.5,809.1,20.1,755.7,20.1,669V510.5l176.8-80.1V305.3c0-86.7,76.7-140.1,198.5-140.1
			c123.4,0,201.8,53.4,201.8,140.1V357l-150.1,5v-48.4c0-26.7-8.3-43.4-50-43.4c-50,0-50,25-50,35v138.5l33.4-15v-28.4h216.9v50
			l-186.8,80.1v136.8C412.1,757.4,338.7,809.1,215.2,809.1z M168.5,669c0,10,0,35,48.4,35c40,0,48.4-16.7,48.4-43.4v-71.7h-65.1
			v-71.7l-33.4,15V669H168.5z"/>
	</g>
</g>
</svg>
