<?xml version="1.0" encoding="utf-8"?>
<!-- Generator: Adobe Illustrator 19.0.0, SVG Export Plug-In . SVG Version: 6.00 Build 0)  -->
<svg version="1.1" id="Layer_1" xmlns="http://www.w3.org/2000/svg" xmlns:xlink="http://www.w3.org/1999/xlink" x="0px" y="0px"
	 viewBox="-227.5 382.6 60.9 52.5" style="enable-background:new -227.5 382.6 60.9 52.5;" xml:space="preserve">
<style type="text/css">
	.st0{opacity:0.5;fill:#FFFFFF;}
</style>
<title>54 all</title>
<path class="st0" d="M-170.5,404.9h-52.9c-2.2,0-4,1.8-4,4s1.8,4,4,4h52.9c2.2,0,4-1.8,4-4S-168.3,404.9-170.5,404.9z"/>
<path class="st0" d="M-170.5,382.6h-52.9c-2.2,0-4,1.8-4,4s1.8,4,4,4h52.9c2.2,0,4-1.8,4-4S-168.3,382.6-170.5,382.6z"/>
<path class="st0" d="M-170.5,427.2h-52.9c-2.2,0-4,1.8-4,4s1.8,4,4,4h52.9c2.2,0,4-1.8,4-4S-168.3,427.2-170.5,427.2z"/>
</svg>
