<?xml version="1.0" encoding="utf-8"?>
<!-- Generator: Adobe Illustrator 19.0.0, SVG Export Plug-In . SVG Version: 6.00 Build 0)  -->
<svg version="1.1"
	 id="Layer_1" xmlns:rdf="http://www.w3.org/1999/02/22-rdf-syntax-ns#" xmlns:svg="http://www.w3.org/2000/svg" xmlns:dc="http://purl.org/dc/elements/1.1/" xmlns:cc="http://creativecommons.org/ns#" xmlns:inkscape="http://www.inkscape.org/namespaces/inkscape" xmlns:sodipodi="http://sodipodi.sourceforge.net/DTD/sodipodi-0.dtd"
	 xmlns="http://www.w3.org/2000/svg" xmlns:xlink="http://www.w3.org/1999/xlink" x="0px" y="0px" viewBox="-275 367 60 60"
	 style="enable-background:new -275 367 60 60;" xml:space="preserve">
<style type="text/css">
	.st0{fill:#FFFFFF;}
</style>
<g transform="translate(0,-952.36218)">
	<path class="st0" d="M-228.1,1378.3c1.6-0.1,2.9-1.6,2.8-3.2v-0.1l-2-17.1l11.5-12.7c1.1-1.2,1-3.1-0.2-4.3
		c-0.4-0.4-0.9-0.6-1.4-0.7l-16.7-3.4l-8.3-15c-0.8-1.5-2.6-2-4.1-1.2c-0.5,0.3-0.9,0.7-1.1,1.2l-8.3,15l-16.7,3.4
		c-1.6,0.3-2.7,1.9-2.3,3.6c0.1,0.5,0.4,1.1,0.7,1.5l11.5,12.7l-2,17.1c-0.2,1.7,1,3.2,2.6,3.3c0.5,0.1,1.1,0,1.6-0.3l15.4-7.2
		l15.4,7.2C-229.1,1378.2-228.6,1378.3-228.1,1378.3z"/>
</g>
</svg>
