<svg version="1" xmlns="http://www.w3.org/2000/svg" width="933.333" height="933.333" viewBox="0 0 700.000000 700.000000"><path d="M270.7 115.6c-.1.1-5.8.5-12.6.8-6.9.4-12.7.9-13 1.1-.3.1-3.1.6-6.1 1-7.5.9-25 5.2-33.5 8.2-29.5 10.5-51.5 29.8-61.2 53.5-2.2 5.5-6 20.9-6.1 24.8 0 .8-.1 22.8-.2 48.8l-.1 47.4-7.7 3.5c-4.2 1.9-9.7 4.4-12.2 5.5-2.5 1.1-8.1 3.7-12.5 5.7s-26.8 12.2-49.8 22.6l-41.8 19 .3 63c.4 60.5.5 63.3 2.5 70.6 11 39.5 43.9 64.2 96.3 72.4 36.3 5.7 79.4 2.5 109.2-8.1 17.5-6.2 29.2-13.6 41.3-25.9 9.7-9.8 15.5-19.2 19.4-31.5 4.2-13.1 4.4-16 4.5-74.2.1-33.1.5-52 1.1-52.6.6-.5 16.1-7.3 34.5-15.2 18.4-7.8 35.9-15.3 38.8-16.6 2.9-1.3 5.5-2.4 5.7-2.4.2 0 2.8-1.1 5.7-2.4 2.9-1.4 14.1-6.2 24.8-10.7 10.7-4.5 19.6-8.3 19.8-8.5.3-.1.4-22.1.3-32l-.1-3.1H266.4v9.6l.1 9.6-9.5 4.6c-5.2 2.5-10.5 4.9-11.7 5.3l-2.3.7V259c0-55.7 0-55.2 5.8-61.3 5.1-5.4 13.4-7.9 27.4-8.3 20.4-.5 31.6 4.9 35.1 17.2 1.1 4 1.6 10.7 1.7 25.6 0 11.1.3 20.4.5 20.6.4.4 12.6.3 28-.3 3.9-.1 17.6-.6 30.5-1 12.9-.5 26-.9 29-1 3-.2 8.1-.3 11.4-.4l5.8-.1-.5-26.3c-.5-24.4-.7-26.8-3-34.4-4.6-14.9-11.2-25.7-22.1-36.5-21.4-21.1-55.9-33.9-97.7-36.4-11.9-.7-23.9-1.1-24.2-.8zM140.2 387.4c0 22.2.1 24.6 1.6 24.7 1 0 11.2.2 22.7.2l21 .2v28c0 28.2-.3 32.5-2.5 38-2.4 6.2-9.3 11.2-18 13-6.1 1.3-19 1.3-26.1-.1-13.6-2.6-18.9-7.8-21-20.7-1-5.8-1.6-97.3-.7-98.2.7-.8 22.3-10.2 22.6-10 .2.2.3 11.4.4 24.9z"/><path d="M428 147.3c0 1.8-.1 42.3-.3 90l-.2 86.8-17 7c-9.3 3.9-18.3 7.7-20 8.4-1.6.7-11.3 4.8-21.5 8.9-10.2 4.2-19.4 8-20.5 8.5-5.7 2.5-9.8 4.3-18 7.6-12.6 5.1-12.8 5.2-24 10l-10 4.2v205.7H363c60.6-.1 89.3-.6 96-1.8 1.4-.3 4.8-.7 7.5-1 16.2-1.7 40.3-8.9 53.5-16 25.3-13.5 41.7-34.1 47.3-59.2 2.5-11.2 2.9-15.1 2.9-31.9 0-14.5-.3-18.5-1.8-28-3.5-22-15.3-42.2-31.8-54.1l-5.9-4.3 4.9-2.2c2.7-1.1 8.7-3.7 13.4-5.6 8.4-3.5 12.4-5.2 22.8-9.9 2.9-1.3 5.5-2.4 5.8-2.4.3 0 2.9-1.1 5.7-2.3 8.6-3.9 22.7-10 52-22.6 15.4-6.5 27.5-12.1 27-12.4-.4-.3-2.7-1-5-1.6-4.5-1.2-5.5-2.6-2.5-3.5 2.3-.8 14.1-12 17.6-16.8 3.1-4.3 8.1-15.1 9.5-20.6 3.2-11.8 3.9-20.7 3.6-40.2-.3-15.7-1-21.2-3.9-32-5.5-20-21.2-39.8-41.1-51.6-5.1-3-18.8-9.3-21.5-9.9-.8-.2-4.4-1.2-8-2.3-7.4-2.3-10.1-2.9-15.6-3.8-2.1-.3-4.1-.7-4.4-.9-.3-.2-3.7-.6-7.5-1-3.9-.4-9.1-1-11.6-1.4-2.5-.4-35.9-.8-74.2-.9l-69.7-.1v3.2zm129.5 69.2c10.1 1.7 17.3 7.3 20.1 15.7 1.9 5.9 2.7 31.6 1.2 39.8-3 16.2-12.4 22.6-34.5 23.7l-11.3.5v-81l10.3.3c5.6.2 12 .6 14.2 1zm-118 207.1c16 3.2 24.3 10 27 22.4 1.3 5.6 1.3 35 0 40.6-2.8 12.5-11 19-27.5 22-1.9.3-11.3.7-20.7.9l-17.3.2v-88l17.8.7c9.7.3 19.1.8 20.7 1.2z"/></svg>