<?xml version="1.0" encoding="utf-8"?>
<!-- Generator: Adobe Illustrator 19.2.0, SVG Export Plug-In . SVG Version: 6.00 Build 0)  -->
<svg version="1.1" id="Layer_1" xmlns="http://www.w3.org/2000/svg" xmlns:xlink="http://www.w3.org/1999/xlink" x="0px" y="0px"
	 viewBox="0 0 37.4 32.5" style="enable-background:new 0 0 37.4 32.5;" xml:space="preserve">
<path d="M18.7,32.5c-0.3,0-0.7-0.1-1-0.3l-0.8-0.6C9.3,25.6,4.7,22.1,2,17.3C-0.5,12.8-0.2,9.2,0.5,7C1.4,4.3,3.3,2.2,6,1
	c1.4-0.6,2.9-1,4.4-1c3.3,0,6.4,1.4,8.3,3.7c2-2.3,5-3.7,8.3-3.7c1.6,0,3,0.3,4.4,1c2.7,1.2,4.6,3.4,5.5,6.1c0.7,2.2,1,5.8-1.5,10.3
	c-2.7,4.7-7.3,8.3-14.9,14.2l-0.8,0.6C19.4,32.4,19.1,32.5,18.7,32.5z"/>
<path d="M10.4,3.2c-1.1,0-2.1,0.2-3.1,0.7C5.5,4.7,4.1,6.2,3.5,8c-0.7,2.3-0.3,5,1.3,7.8c2.3,4.2,6.5,7.4,13.9,13.1
	c7.4-5.8,11.6-9,13.9-13.1c1.6-2.8,2-5.5,1.3-7.8c-0.6-1.8-1.9-3.3-3.8-4.2c-0.9-0.4-2-0.7-3.1-0.7c-3,0-5.8,1.7-6.9,4.1
	c-0.3,0.6-0.8,0.9-1.4,0.9s-1.2-0.4-1.4-0.9C16.1,4.8,13.4,3.2,10.4,3.2z"/>
</svg>
