<?xml version="1.0" encoding="utf-8"?>
<!-- Generator: Adobe Illustrator 19.0.0, SVG Export Plug-In . SVG Version: 6.00 Build 0)  -->
<svg version="1.1" id="Layer_1" xmlns="http://www.w3.org/2000/svg" xmlns:xlink="http://www.w3.org/1999/xlink" x="0px" y="0px"
	 viewBox="101.1 316.5 92.4 92.4" style="enable-background:new 101.1 316.5 92.4 92.4;" xml:space="preserve">
<style type="text/css">
	.st0{fill:#27242B;}
</style>
<path class="st0" d="M147.3,316.5c-25.5,0-46.2,20.7-46.2,46.2s20.7,46.2,46.2,46.2s46.2-20.7,46.2-46.2S172.8,316.5,147.3,316.5z
	 M168.5,366l-30.8,18c-0.6,0.4-1.3,0.5-1.9,0.5s-1.3-0.1-1.9-0.5c-1.2-0.6-1.9-1.9-1.9-3.3v-36c0-1.4,0.8-2.7,1.9-3.3
	c1.2-0.6,2.7-0.6,3.8,0l30.8,18c1.2,0.6,1.9,1.9,1.9,3.3C170.4,364.1,169.6,365.4,168.5,366z"/>
</svg>
